<svg xmlns="http://www.w3.org/2000/svg" viewBox="-200 -200 400 400" width="800" height="800" style="background: #f0f0f0;">
  <!-- Glassmorphic Frame (Static) -->
  <g transform="perspective(800px) rotateX(10deg)">
    <!-- Outer Glow -->
    <rect x="-160" y="-160" width="320" height="320" rx="20" fill="rgba(249, 250, 251, 0.05)" filter="url(#blur)" stroke="rgba(249, 250, 251, 0.3)" stroke-width="1"/>
    
    <!-- Glass Panel -->
    <rect x="-150" y="-150" width="300" height="300" rx="20" fill="rgba(249, 250, 251, 0.1)" filter="url(#blur)" stroke="rgba(249, 250, 251, 0.3)" stroke-width="1"/>
  </g>

  <!-- Animated Logo Content -->
  <g transform="rotate(0)">
    <!-- Pulse Animation -->
    <animateTransform attributeName="transform" type="scale" values="1;1.05;1" dur="2s" repeatCount="indefinite"/>
    
    <!-- Spin Animation -->
    <animateTransform attributeName="transform" type="rotate" values="0;720" dur="5s" begin="0s;8s" additive="sum" fill="freeze"/>

    <!-- Logo Geometry -->
    <g filter="url(#pipe-effect)">
      <!-- Central Vertical Line -->
      <line x1="0" y1="-130" x2="0" y2="130" stroke="#0866FF" stroke-width="3" stroke-linecap="round">
        <animate attributeName="stroke-width" values="3;5;3" dur="2s" repeatCount="indefinite"/>
      </line>

      <!-- W Patterns (4 rotations) -->
      <g transform="rotate(0)">
        <path d="M -95,95 L -71,0 L -35,71 L 0,0 L 35,71 L 71,0 L 95,95" fill="none" stroke="#0866FF" stroke-width="4" stroke-linecap="round" stroke-linejoin="round">
          <animate attributeName="stroke-width" values="4;6;4" dur="2s" repeatCount="indefinite"/>
        </path>
        <path d="M -95,-95 L -71,0 L -35,-71 L 0,0 L 35,-71 L 71,0 L 95,-95" fill="none" stroke="#0866FF" stroke-width="4" stroke-linecap="round" stroke-linejoin="round">
          <animate attributeName="stroke-width" values="4;6;4" dur="2s" repeatCount="indefinite"/>
        </path>
      </g>
      <g transform="rotate(90)">
        <path d="M -95,95 L -71,0 L -35,71 L 0,0 L 35,71 L 71,0 L 95,95" fill="none" stroke="#0866FF" stroke-width="4" stroke-linecap="round" stroke-linejoin="round">
          <animate attributeName="stroke-width" values="4;6;4" dur="2s" repeatCount="indefinite"/>
        </path>
        <path d="M -95,-95 L -71,0 L -35,-71 L 0,0 L 35,-71 L 71,0 L 95,-95" fill="none" stroke="#0866FF" stroke-width="4" stroke-linecap="round" stroke-linejoin="round">
          <animate attributeName="stroke-width" values="4;6;4" dur="2s" repeatCount="indefinite"/>
        </path>
      </g>
      <g transform="rotate(180)">
        <path d="M -95,95 L -71,0 L -35,71 L 0,0 L 35,71 L 71,0 L 95,95" fill="none" stroke="#0866FF" stroke-width="4" stroke-linecap="round" stroke-linejoin="round">
          <animate attributeName="stroke-width" values="4;6;4" dur="2s" repeatCount="indefinite"/>
        </path>
        <path d="M -95,-95 L -71,0 L -35,-71 L 0,0 L 35,-71 L 71,0 L 95,-95" fill="none" stroke="#0866FF" stroke-width="4" stroke-linecap="round" stroke-linejoin="round">
          <animate attributeName="stroke-width" values="4;6;4" dur="2s" repeatCount="indefinite"/>
        </path>
      </g>
      <g transform="rotate(270)">
        <path d="M -95,95 L -71,0 L -35,71 L 0,0 L 35,71 L 71,0 L 95,95" fill="none" stroke="#0866FF" stroke-width="4" stroke-linecap="round" stroke-linejoin="round">
          <animate attributeName="stroke-width" values="4;6;4" dur="2s" repeatCount="indefinite"/>
        </path>
        <path d="M -95,-95 L -71,0 L -35,-71 L 0,0 L 35,-71 L 71,0 L 95,-95" fill="none" stroke="#0866FF" stroke-width="4" stroke-linecap="round" stroke-linejoin="round">
          <animate attributeName="stroke-width" values="4;6;4" dur="2s" repeatCount="indefinite"/>
        </path>
      </g>

      <!-- Center Elements -->
      <circle cx="0" cy="0" r="32" fill="none" stroke="#0866FF" stroke-width="3">
        <animate attributeName="r" values="32;36;32" dur="2s" repeatCount="indefinite"/>
      </circle>
      <circle cx="0" cy="0" r="10" fill="#0866FF">
        <animate attributeName="r" values="10;12;10" dur="2s" repeatCount="indefinite"/>
      </circle>
    </g>
  </g>

  <!-- Filters -->
  <defs>
    <filter id="blur">
      <feGaussianBlur stdDeviation="10"/>
    </filter>
    <filter id="pipe-effect" x="-50%" y="-50%" width="200%" height="200%">
      <feDropShadow dx="0" dy="2" stdDeviation="2" flood-color="#0866FF" flood-opacity="0.5"/>
    </filter>
  </defs>
</svg>